<svg width="71" height="71" viewBox="0 0 71 71" fill="none" xmlns="http://www.w3.org/2000/svg">
<path d="M35.5 4C18.13 4 4 18.13 4 35.5C4 52.87 18.13 67 35.5 67C52.87 67 67 52.87 67 35.5C67 18.13 52.87 4 35.5 4ZM27.733 60.9633C25.726 59.9215 22.459 57.5905 23.1092 53.6845C23.3995 51.943 24.2455 50.0777 25.4538 48.145C28.912 52.186 33.3895 54.922 38.5555 55.9795C41.4895 56.5803 44.4055 56.5465 47.056 55.9615C47.1978 57.73 46.678 59.2038 45.4923 60.3715C42.1375 63.6745 33.5043 63.9625 27.733 60.9633ZM43.7035 11.5465C46.9795 14.8225 46.0457 18.8725 43.1567 23.3477C41.5368 22.9472 39.847 22.855 38.1055 23.0733C34.1658 23.566 30.2688 25.6675 26.6643 28.633C24.9025 26.1332 22.7673 24.4862 20.2743 23.7145C21.0078 15.9677 24.9543 11.0313 28.9188 8.90952C33.8755 6.25677 39.4015 7.24226 43.7035 11.5465ZM30.7705 41.2442C33.241 43.978 36.7397 45.6565 41.0327 46.0975C41.9035 46.183 42.7833 46.219 43.6833 46.2078C44.1715 48.1045 44.851 49.9697 45.7443 51.754C46.0953 52.4582 46.3788 53.1288 46.5903 53.7723C44.2458 54.2875 41.6402 54.3145 39.0077 53.7768C34.1545 52.7823 29.9627 50.1317 26.77 46.1965C27.9377 44.5742 29.308 42.916 30.7705 41.2442ZM29.8165 35.1445C29.2472 33.4345 28.5947 31.9068 27.859 30.559C31.2092 27.7465 34.8048 25.753 38.3868 25.3052C39.5365 25.1635 40.657 25.1815 41.7505 25.3682C39.5257 28.3601 36.6145 31.5129 33.6432 34.7309L33.6145 34.762L33.5562 34.8252C32.6822 35.7718 31.8042 36.7227 30.9392 37.6757C30.5095 36.9242 30.1292 36.0827 29.8165 35.1445ZM45.4427 43.8497C44.3245 37.957 45.1953 32.0867 47.056 27.697C49.0068 29.1347 50.8405 31.189 52.5505 33.8552C54.0647 36.22 55.0637 38.506 55.5385 40.6525C52.5212 42.349 48.955 43.5032 45.4427 43.8497ZM43.1973 43.96C42.5448 43.9577 41.8968 43.924 41.2623 43.8587C38.3598 43.5595 34.825 42.52 32.269 39.5612C33.2545 38.47 34.2647 37.3742 35.2682 36.2897L35.2818 36.2751C38.4409 32.8553 41.6392 29.3932 44.0477 26.0118C44.3988 26.1513 44.7475 26.3065 45.0918 26.482C42.9543 31.3398 42.0925 37.7185 43.1973 43.96ZM24.9587 30.1157C23.6132 31.3532 22.3173 32.6987 21.0865 34.1117C21.0033 33.754 20.9245 33.3917 20.8525 33.0295C20.3508 30.5162 20.137 28.192 20.1572 26.05C21.991 26.761 23.5952 28.1222 24.9587 30.1157ZM26.131 32.1002C26.7025 33.2117 27.22 34.465 27.6835 35.8555C28.1155 37.156 28.6847 38.3462 29.3755 39.4217C27.9377 41.0552 26.572 42.6843 25.3705 44.302C23.8945 42.0925 22.6908 39.5612 21.8065 36.7555C23.17 35.104 24.619 33.5267 26.131 32.1002ZM45.958 46.0638C49.3915 45.6903 52.8318 44.6237 55.8535 43.0532C55.9323 45.2717 55.381 47.2945 54.1908 49.0293C52.933 50.8608 51.0273 52.258 48.7458 53.1288C48.5028 52.3818 48.1765 51.5875 47.7557 50.7437C46.9907 49.2182 46.399 47.6455 45.958 46.0638ZM54.4473 32.6425C52.4853 29.5847 50.3567 27.247 48.0685 25.6338C49.1957 23.6245 50.5502 22.0855 51.988 21.2192C56.0155 18.7983 59.431 21.883 61.5865 24.9048C63.823 28.0368 64.0232 31.3848 62.1602 34.5888C61.1275 36.3685 59.5188 37.9997 57.559 39.3835C57.0168 37.372 56.038 35.1242 54.4473 32.6425ZM60.4953 20.3642C56.245 16.8047 52.456 18.3078 50.8248 19.291C49 20.389 47.398 22.1822 46.1065 24.448C45.85 24.3175 45.5912 24.196 45.3302 24.0835C48.4982 18.9805 49.4635 14.125 45.292 9.95349C43.9308 8.58999 42.4322 7.54374 40.8662 6.76299C49.1912 8.31099 56.254 13.378 60.4953 20.3642ZM26.86 7.55051C22.7493 10.1875 18.8703 15.4188 18.0603 23.2713C14.0845 22.8955 10.282 24.5965 7.843 26.041C10.858 17.23 17.9342 10.3068 26.86 7.55051ZM6.9025 29.3755C8.1445 28.435 13.027 25.0217 17.9163 25.519C17.8533 27.9512 18.0715 30.6018 18.6475 33.4705C18.8365 34.42 19.0593 35.347 19.309 36.2492C15.457 41.1025 12.3903 46.4417 10.588 50.773C7.85425 46.3225 6.25 41.1048 6.25 35.5C6.25 33.3985 6.48175 31.351 6.9025 29.3755ZM12.1203 53.0253C13.5783 49.0653 16.4447 43.7822 20.1437 38.8682C21.1382 41.611 22.4342 44.0927 23.9867 46.273C22.4005 48.6827 21.2665 51.0475 20.8885 53.3155C20.2428 57.1945 22.3577 60.709 26.6935 62.9613C27.625 63.445 28.669 63.8343 29.7512 64.1785C22.5715 62.7475 16.3615 58.6705 12.1203 53.0253ZM46.237 62.689C46.5295 62.4662 46.813 62.2323 47.0718 61.978C48.4285 60.6415 49.6637 58.5152 49.2542 55.3315C52.087 54.3077 54.4765 52.591 56.047 50.305C57.19 48.6423 58.4838 45.7937 58.0248 41.7977C60.6168 40.1147 62.7588 38.038 64.1065 35.7205C64.336 35.3245 64.5228 34.9217 64.7028 34.519C64.7066 34.6596 64.7159 34.7994 64.7253 34.9397C64.7376 35.1247 64.75 35.3106 64.75 35.5C64.75 47.8592 57.073 58.405 46.237 62.689Z" fill="black"/>
<path d="M35.5 4C18.13 4 4 18.13 4 35.5C4 52.87 18.13 67 35.5 67C52.87 67 67 52.87 67 35.5C67 18.13 52.87 4 35.5 4ZM27.733 60.9633C25.726 59.9215 22.459 57.5905 23.1092 53.6845C23.3995 51.943 24.2455 50.0777 25.4538 48.145C28.912 52.186 33.3895 54.922 38.5555 55.9795C41.4895 56.5803 44.4055 56.5465 47.056 55.9615C47.1978 57.73 46.678 59.2038 45.4923 60.3715C42.1375 63.6745 33.5043 63.9625 27.733 60.9633ZM43.7035 11.5465C46.9795 14.8225 46.0457 18.8725 43.1567 23.3477C41.5368 22.9472 39.847 22.855 38.1055 23.0733C34.1658 23.566 30.2688 25.6675 26.6643 28.633C24.9025 26.1332 22.7673 24.4862 20.2743 23.7145C21.0078 15.9677 24.9543 11.0313 28.9188 8.90952C33.8755 6.25677 39.4015 7.24226 43.7035 11.5465ZM30.7705 41.2442C33.241 43.978 36.7397 45.6565 41.0327 46.0975C41.9035 46.183 42.7833 46.219 43.6833 46.2078C44.1715 48.1045 44.851 49.9697 45.7443 51.754C46.0953 52.4582 46.3788 53.1288 46.5903 53.7723C44.2458 54.2875 41.6402 54.3145 39.0077 53.7768C34.1545 52.7823 29.9627 50.1317 26.77 46.1965C27.9377 44.5742 29.308 42.916 30.7705 41.2442ZM29.8165 35.1445C29.2472 33.4345 28.5947 31.9068 27.859 30.559C31.2092 27.7465 34.8048 25.753 38.3868 25.3052C39.5365 25.1635 40.657 25.1815 41.7505 25.3682C39.5257 28.3601 36.6145 31.5129 33.6432 34.7309L33.6145 34.762L33.5562 34.8252C32.6822 35.7718 31.8042 36.7227 30.9392 37.6757C30.5095 36.9242 30.1292 36.0827 29.8165 35.1445ZM45.4427 43.8497C44.3245 37.957 45.1953 32.0867 47.056 27.697C49.0068 29.1347 50.8405 31.189 52.5505 33.8552C54.0647 36.22 55.0637 38.506 55.5385 40.6525C52.5212 42.349 48.955 43.5032 45.4427 43.8497ZM43.1973 43.96C42.5448 43.9577 41.8968 43.924 41.2623 43.8587C38.3598 43.5595 34.825 42.52 32.269 39.5612C33.2545 38.47 34.2647 37.3742 35.2682 36.2897L35.2818 36.2751C38.4409 32.8553 41.6392 29.3932 44.0477 26.0118C44.3988 26.1513 44.7475 26.3065 45.0918 26.482C42.9543 31.3398 42.0925 37.7185 43.1973 43.96ZM24.9587 30.1157C23.6132 31.3532 22.3173 32.6987 21.0865 34.1117C21.0033 33.754 20.9245 33.3917 20.8525 33.0295C20.3508 30.5162 20.137 28.192 20.1572 26.05C21.991 26.761 23.5952 28.1222 24.9587 30.1157ZM26.131 32.1002C26.7025 33.2117 27.22 34.465 27.6835 35.8555C28.1155 37.156 28.6847 38.3462 29.3755 39.4217C27.9377 41.0552 26.572 42.6843 25.3705 44.302C23.8945 42.0925 22.6908 39.5612 21.8065 36.7555C23.17 35.104 24.619 33.5267 26.131 32.1002ZM45.958 46.0638C49.3915 45.6903 52.8318 44.6237 55.8535 43.0532C55.9323 45.2717 55.381 47.2945 54.1908 49.0293C52.933 50.8608 51.0273 52.258 48.7458 53.1288C48.5028 52.3818 48.1765 51.5875 47.7557 50.7437C46.9907 49.2182 46.399 47.6455 45.958 46.0638ZM54.4473 32.6425C52.4853 29.5847 50.3567 27.247 48.0685 25.6338C49.1957 23.6245 50.5502 22.0855 51.988 21.2192C56.0155 18.7983 59.431 21.883 61.5865 24.9048C63.823 28.0368 64.0232 31.3848 62.1602 34.5888C61.1275 36.3685 59.5188 37.9997 57.559 39.3835C57.0168 37.372 56.038 35.1242 54.4473 32.6425ZM60.4953 20.3642C56.245 16.8047 52.456 18.3078 50.8248 19.291C49 20.389 47.398 22.1822 46.1065 24.448C45.85 24.3175 45.5912 24.196 45.3302 24.0835C48.4982 18.9805 49.4635 14.125 45.292 9.95349C43.9308 8.58999 42.4322 7.54374 40.8662 6.76299C49.1912 8.31099 56.254 13.378 60.4953 20.3642ZM26.86 7.55051C22.7493 10.1875 18.8703 15.4188 18.0603 23.2713C14.0845 22.8955 10.282 24.5965 7.843 26.041C10.858 17.23 17.9342 10.3068 26.86 7.55051ZM6.9025 29.3755C8.1445 28.435 13.027 25.0217 17.9163 25.519C17.8533 27.9512 18.0715 30.6018 18.6475 33.4705C18.8365 34.42 19.0593 35.347 19.309 36.2492C15.457 41.1025 12.3903 46.4417 10.588 50.773C7.85425 46.3225 6.25 41.1048 6.25 35.5C6.25 33.3985 6.48175 31.351 6.9025 29.3755ZM12.1203 53.0253C13.5783 49.0653 16.4447 43.7822 20.1437 38.8682C21.1382 41.611 22.4342 44.0927 23.9867 46.273C22.4005 48.6827 21.2665 51.0475 20.8885 53.3155C20.2428 57.1945 22.3577 60.709 26.6935 62.9613C27.625 63.445 28.669 63.8343 29.7512 64.1785C22.5715 62.7475 16.3615 58.6705 12.1203 53.0253ZM46.237 62.689C46.5295 62.4662 46.813 62.2323 47.0718 61.978C48.4285 60.6415 49.6637 58.5152 49.2542 55.3315C52.087 54.3077 54.4765 52.591 56.047 50.305C57.19 48.6423 58.4838 45.7937 58.0248 41.7977C60.6168 40.1147 62.7588 38.038 64.1065 35.7205C64.336 35.3245 64.5228 34.9217 64.7028 34.519C64.7066 34.6596 64.7159 34.7994 64.7253 34.9397C64.7376 35.1247 64.75 35.3106 64.75 35.5C64.75 47.8592 57.073 58.405 46.237 62.689Z" stroke="black"/>
</svg>
