<svg width="27" height="27" viewBox="0 0 27 27" fill="none" xmlns="http://www.w3.org/2000/svg">
<path d="M13.5 0C6.05571 0 0 6.05571 0 13.5C0 20.9443 6.05571 27 13.5 27C20.9443 27 27 20.9443 27 13.5C27 6.05571 20.9443 0 13.5 0ZM10.1713 24.4128C9.31114 23.9664 7.911 22.9674 8.18968 21.2934C8.31407 20.547 8.67664 19.7476 9.19446 18.9193C10.6766 20.6511 12.5955 21.8237 14.8095 22.2769C16.0669 22.5344 17.3166 22.5199 18.4526 22.2692C18.5133 23.0271 18.2906 23.6588 17.7824 24.1592C16.3446 25.5748 12.6447 25.6982 10.1713 24.4128ZM17.0158 3.23422C18.4198 4.63822 18.0196 6.37393 16.7815 8.29189C16.0872 8.12025 15.363 8.08072 14.6166 8.17426C12.9282 8.38543 11.258 9.28607 9.71325 10.557C8.95822 9.48568 8.04311 8.77982 6.97468 8.44907C7.28904 5.12903 8.98039 3.0134 10.6795 2.10408C12.8038 0.967185 15.1721 1.38954 17.0158 3.23422ZM11.4731 15.9618C12.5319 17.1334 14.0313 17.8528 15.8712 18.0418C16.2444 18.0784 16.6214 18.0939 17.0071 18.089C17.2164 18.9019 17.5076 19.7013 17.8904 20.466C18.0408 20.7678 18.1623 21.0552 18.253 21.331C17.2482 21.5518 16.1315 21.5634 15.0033 21.3329C12.9234 20.9067 11.1269 19.7707 9.75857 18.0842C10.259 17.389 10.8463 16.6783 11.4731 15.9618ZM11.0642 13.3476C10.8202 12.6148 10.5406 11.96 10.2253 11.3824C11.6611 10.1771 13.202 9.32271 14.7372 9.13082C15.2299 9.07007 15.7101 9.07778 16.1788 9.15782C15.2253 10.44 13.9776 11.7913 12.7042 13.1704L12.6919 13.1837L12.6672 13.2105C12.2925 13.6163 11.9162 14.0239 11.5454 14.4325C11.3612 14.1104 11.1982 13.7497 11.0642 13.3476ZM17.7612 17.0785C17.2819 14.553 17.6551 12.0372 18.4526 10.1559C19.2886 10.772 20.0745 11.6524 20.8074 12.7951C21.4563 13.8086 21.8845 14.7883 22.0879 15.7082C20.7948 16.4353 19.2664 16.93 17.7612 17.0785ZM16.7988 17.1257C16.5192 17.1247 16.2415 17.1103 15.9695 17.0823C14.7256 16.9541 13.2107 16.5086 12.1153 15.2405C12.5376 14.7729 12.9706 14.3032 13.4007 13.8385L13.4065 13.8322C14.7604 12.3666 16.1311 10.8828 17.1633 9.43361C17.3137 9.4934 17.4632 9.55993 17.6108 9.63515C16.6947 11.717 16.3254 14.4508 16.7988 17.1257ZM8.98232 11.1925C8.40568 11.7228 7.85025 12.2995 7.32279 12.905C7.28711 12.7517 7.25336 12.5965 7.2225 12.4412C7.00747 11.3641 6.91586 10.368 6.92454 9.45C7.71043 9.75472 8.39796 10.3381 8.98232 11.1925ZM9.48471 12.043C9.72964 12.5193 9.95143 13.0564 10.1501 13.6524C10.3352 14.2097 10.5792 14.7198 10.8752 15.1807C10.259 15.8808 9.67372 16.579 9.15879 17.2723C8.52622 16.3254 8.01032 15.2405 7.63136 14.0381C8.21572 13.3303 8.83671 12.6543 9.48471 12.043ZM17.982 18.0273C19.4535 17.8673 20.9279 17.4102 22.2229 16.7371C22.2567 17.6879 22.0204 18.5548 21.5103 19.2983C20.9713 20.0832 20.1545 20.682 19.1768 21.0552C19.0726 20.735 18.9328 20.3946 18.7525 20.033C18.4246 19.3792 18.171 18.7052 17.982 18.0273ZM21.6203 12.2754C20.7794 10.9649 19.8672 9.96301 18.8865 9.27161C19.3696 8.41051 19.9501 7.75093 20.5663 7.37968C22.2924 6.34211 23.7561 7.66414 24.6799 8.95918C25.6384 10.3015 25.7242 11.7363 24.9258 13.1095C24.4832 13.8722 23.7938 14.5713 22.9539 15.1644C22.7215 14.3023 22.302 13.339 21.6203 12.2754ZM24.2123 7.01325C22.3907 5.48775 20.7669 6.1319 20.0678 6.55329C19.2857 7.02386 18.5991 7.79239 18.0456 8.76343C17.9357 8.7075 17.8248 8.65542 17.713 8.60721C19.0707 6.42021 19.4844 4.33928 17.6966 2.5515C17.1132 1.96714 16.471 1.51875 15.7998 1.18414C19.3677 1.84757 22.3946 4.01914 24.2123 7.01325ZM9.79714 1.52165C8.03539 2.65179 6.37296 4.89375 6.02582 8.25911C4.32193 8.09807 2.69229 8.82708 1.647 9.44615C2.93914 5.67001 5.97182 2.7029 9.79714 1.52165ZM1.24393 10.8752C1.77622 10.4721 3.86872 9.00932 5.96411 9.22242C5.93711 10.2648 6.03064 11.4008 6.2775 12.6302C6.3585 13.0372 6.45397 13.4344 6.561 13.8211C4.91014 15.9011 3.59582 18.1893 2.82343 20.0456C1.65182 18.1382 0.964286 15.902 0.964286 13.5C0.964286 12.5994 1.06361 11.7219 1.24393 10.8752ZM3.48011 21.0108C4.10497 19.3137 5.33346 17.0495 6.91875 14.9435C7.34496 16.119 7.90039 17.1826 8.56575 18.117C7.88593 19.1497 7.39993 20.1632 7.23793 21.1352C6.96118 22.7976 7.86761 24.3039 9.72578 25.2691C10.125 25.4764 10.5724 25.6433 11.0363 25.7908C7.95921 25.1775 5.29779 23.4302 3.48011 21.0108ZM18.1016 25.1524C18.2269 25.057 18.3484 24.9567 18.4593 24.8477C19.0408 24.2749 19.5702 23.3637 19.3947 21.9992C20.6087 21.5605 21.6328 20.8247 22.3059 19.845C22.7957 19.1324 23.3502 17.9116 23.1535 16.199C24.2643 15.4777 25.1823 14.5877 25.7599 13.5945C25.8583 13.4248 25.9383 13.2522 26.0155 13.0796C26.0171 13.1398 26.0211 13.1998 26.0251 13.2599C26.0304 13.3392 26.0357 13.4188 26.0357 13.5C26.0357 18.7968 22.7456 23.3164 18.1016 25.1524Z" fill="black"/>
<path d="M13.5 0C6.05571 0 0 6.05571 0 13.5C0 20.9443 6.05571 27 13.5 27C20.9443 27 27 20.9443 27 13.5C27 6.05571 20.9443 0 13.5 0ZM10.1713 24.4128C9.31114 23.9664 7.911 22.9674 8.18968 21.2934C8.31407 20.547 8.67664 19.7476 9.19446 18.9193C10.6766 20.6511 12.5955 21.8237 14.8095 22.2769C16.0669 22.5344 17.3166 22.5199 18.4526 22.2692C18.5133 23.0271 18.2906 23.6588 17.7824 24.1592C16.3446 25.5748 12.6447 25.6982 10.1713 24.4128ZM17.0158 3.23422C18.4198 4.63822 18.0196 6.37393 16.7815 8.29189C16.0872 8.12025 15.363 8.08072 14.6166 8.17426C12.9282 8.38543 11.258 9.28607 9.71325 10.557C8.95822 9.48568 8.04311 8.77982 6.97468 8.44907C7.28904 5.12903 8.98039 3.0134 10.6795 2.10408C12.8038 0.967185 15.1721 1.38954 17.0158 3.23422ZM11.4731 15.9618C12.5319 17.1334 14.0313 17.8528 15.8712 18.0418C16.2444 18.0784 16.6214 18.0939 17.0071 18.089C17.2164 18.9019 17.5076 19.7013 17.8904 20.466C18.0408 20.7678 18.1623 21.0552 18.253 21.331C17.2482 21.5518 16.1315 21.5634 15.0033 21.3329C12.9234 20.9067 11.1269 19.7707 9.75857 18.0842C10.259 17.389 10.8463 16.6783 11.4731 15.9618ZM11.0642 13.3476C10.8202 12.6148 10.5406 11.96 10.2253 11.3824C11.6611 10.1771 13.202 9.32271 14.7372 9.13082C15.2299 9.07007 15.7101 9.07778 16.1788 9.15782C15.2253 10.44 13.9776 11.7913 12.7042 13.1704L12.6919 13.1837L12.6672 13.2105C12.2925 13.6163 11.9162 14.0239 11.5454 14.4325C11.3612 14.1104 11.1982 13.7497 11.0642 13.3476ZM17.7612 17.0785C17.2819 14.553 17.6551 12.0372 18.4526 10.1559C19.2886 10.772 20.0745 11.6524 20.8074 12.7951C21.4563 13.8086 21.8845 14.7883 22.0879 15.7082C20.7948 16.4353 19.2664 16.93 17.7612 17.0785ZM16.7988 17.1257C16.5192 17.1247 16.2415 17.1103 15.9695 17.0823C14.7256 16.9541 13.2107 16.5086 12.1153 15.2405C12.5376 14.7729 12.9706 14.3032 13.4007 13.8385L13.4065 13.8322C14.7604 12.3666 16.1311 10.8828 17.1633 9.43361C17.3137 9.4934 17.4632 9.55993 17.6108 9.63515C16.6947 11.717 16.3254 14.4508 16.7988 17.1257ZM8.98232 11.1925C8.40568 11.7228 7.85025 12.2995 7.32279 12.905C7.28711 12.7517 7.25336 12.5965 7.2225 12.4412C7.00747 11.3641 6.91586 10.368 6.92454 9.45C7.71043 9.75472 8.39796 10.3381 8.98232 11.1925ZM9.48471 12.043C9.72964 12.5193 9.95143 13.0564 10.1501 13.6524C10.3352 14.2097 10.5792 14.7198 10.8752 15.1807C10.259 15.8808 9.67372 16.579 9.15879 17.2723C8.52622 16.3254 8.01032 15.2405 7.63136 14.0381C8.21572 13.3303 8.83671 12.6543 9.48471 12.043ZM17.982 18.0273C19.4535 17.8673 20.9279 17.4102 22.2229 16.7371C22.2567 17.6879 22.0204 18.5548 21.5103 19.2983C20.9713 20.0832 20.1545 20.682 19.1768 21.0552C19.0726 20.735 18.9328 20.3946 18.7525 20.033C18.4246 19.3792 18.171 18.7052 17.982 18.0273ZM21.6203 12.2754C20.7794 10.9649 19.8672 9.96301 18.8865 9.27161C19.3696 8.41051 19.9501 7.75093 20.5663 7.37968C22.2924 6.34211 23.7561 7.66414 24.6799 8.95918C25.6384 10.3015 25.7242 11.7363 24.9258 13.1095C24.4832 13.8722 23.7938 14.5713 22.9539 15.1644C22.7215 14.3023 22.302 13.339 21.6203 12.2754ZM24.2123 7.01325C22.3907 5.48775 20.7669 6.1319 20.0678 6.55329C19.2857 7.02386 18.5991 7.79239 18.0456 8.76343C17.9357 8.7075 17.8248 8.65542 17.713 8.60721C19.0707 6.42021 19.4844 4.33928 17.6966 2.5515C17.1132 1.96714 16.471 1.51875 15.7998 1.18414C19.3677 1.84757 22.3946 4.01914 24.2123 7.01325ZM9.79714 1.52165C8.03539 2.65179 6.37296 4.89375 6.02582 8.25911C4.32193 8.09807 2.69229 8.82708 1.647 9.44615C2.93914 5.67001 5.97182 2.7029 9.79714 1.52165ZM1.24393 10.8752C1.77622 10.4721 3.86872 9.00932 5.96411 9.22242C5.93711 10.2648 6.03064 11.4008 6.2775 12.6302C6.3585 13.0372 6.45397 13.4344 6.561 13.8211C4.91014 15.9011 3.59582 18.1893 2.82343 20.0456C1.65182 18.1382 0.964286 15.902 0.964286 13.5C0.964286 12.5994 1.06361 11.7219 1.24393 10.8752ZM3.48011 21.0108C4.10497 19.3137 5.33346 17.0495 6.91875 14.9435C7.34496 16.119 7.90039 17.1826 8.56575 18.117C7.88593 19.1497 7.39993 20.1632 7.23793 21.1352C6.96118 22.7976 7.86761 24.3039 9.72578 25.2691C10.125 25.4764 10.5724 25.6433 11.0363 25.7908C7.95921 25.1775 5.29779 23.4302 3.48011 21.0108ZM18.1016 25.1524C18.2269 25.057 18.3484 24.9567 18.4593 24.8477C19.0408 24.2749 19.5702 23.3637 19.3947 21.9992C20.6087 21.5605 21.6328 20.8247 22.3059 19.845C22.7957 19.1324 23.3502 17.9116 23.1535 16.199C24.2643 15.4777 25.1823 14.5877 25.7599 13.5945C25.8583 13.4248 25.9383 13.2522 26.0155 13.0796C26.0171 13.1398 26.0211 13.1998 26.0251 13.2599C26.0304 13.3392 26.0357 13.4188 26.0357 13.5C26.0357 18.7968 22.7456 23.3164 18.1016 25.1524Z" stroke="black"/>
</svg>
