<svg width="125" height="27" viewBox="0 0 125 27" fill="none" xmlns="http://www.w3.org/2000/svg">
<path d="M13.5 0C6.05571 0 0 6.05571 0 13.5C0 20.9443 6.05571 27 13.5 27C20.9443 27 27 20.9443 27 13.5C27 6.05571 20.9443 0 13.5 0ZM10.1713 24.4128C9.31114 23.9664 7.911 22.9674 8.18968 21.2934C8.31407 20.547 8.67664 19.7476 9.19446 18.9193C10.6766 20.6511 12.5955 21.8237 14.8095 22.2769C16.0669 22.5344 17.3166 22.5199 18.4526 22.2692C18.5133 23.0271 18.2906 23.6588 17.7824 24.1592C16.3446 25.5748 12.6447 25.6982 10.1713 24.4128ZM17.0158 3.23422C18.4198 4.63822 18.0196 6.37393 16.7815 8.29189C16.0872 8.12025 15.363 8.08072 14.6166 8.17426C12.9282 8.38543 11.258 9.28607 9.71325 10.557C8.95822 9.48568 8.04311 8.77982 6.97468 8.44907C7.28904 5.12903 8.98039 3.0134 10.6795 2.10408C12.8038 0.967185 15.1721 1.38954 17.0158 3.23422ZM11.4731 15.9618C12.5319 17.1334 14.0313 17.8528 15.8712 18.0418C16.2444 18.0784 16.6214 18.0939 17.0071 18.089C17.2164 18.9019 17.5076 19.7013 17.8904 20.466C18.0408 20.7678 18.1623 21.0552 18.253 21.331C17.2482 21.5518 16.1315 21.5634 15.0033 21.3329C12.9234 20.9067 11.1269 19.7707 9.75857 18.0842C10.259 17.389 10.8463 16.6783 11.4731 15.9618ZM11.0642 13.3476C10.8202 12.6148 10.5406 11.96 10.2253 11.3824C11.6611 10.1771 13.202 9.32271 14.7372 9.13082C15.2299 9.07007 15.7101 9.07778 16.1788 9.15782C15.2253 10.44 13.9776 11.7913 12.7042 13.1704L12.6919 13.1837L12.6672 13.2105C12.2925 13.6163 11.9162 14.0239 11.5454 14.4325C11.3612 14.1104 11.1982 13.7497 11.0642 13.3476ZM17.7612 17.0785C17.2819 14.553 17.6551 12.0372 18.4526 10.1559C19.2886 10.772 20.0745 11.6524 20.8074 12.7951C21.4563 13.8086 21.8845 14.7883 22.0879 15.7082C20.7948 16.4353 19.2664 16.93 17.7612 17.0785ZM16.7988 17.1257C16.5192 17.1247 16.2415 17.1103 15.9695 17.0823C14.7256 16.9541 13.2107 16.5086 12.1153 15.2405C12.5376 14.7729 12.9706 14.3032 13.4007 13.8385L13.4065 13.8322C14.7604 12.3666 16.1311 10.8828 17.1633 9.43361C17.3137 9.4934 17.4632 9.55993 17.6108 9.63515C16.6947 11.717 16.3254 14.4508 16.7988 17.1257ZM8.98232 11.1925C8.40568 11.7228 7.85025 12.2995 7.32279 12.905C7.28711 12.7517 7.25336 12.5965 7.2225 12.4412C7.00747 11.3641 6.91586 10.368 6.92454 9.45C7.71043 9.75472 8.39796 10.3381 8.98232 11.1925ZM9.48471 12.043C9.72964 12.5193 9.95143 13.0564 10.1501 13.6524C10.3352 14.2097 10.5792 14.7198 10.8752 15.1807C10.259 15.8808 9.67372 16.579 9.15879 17.2723C8.52622 16.3254 8.01032 15.2405 7.63136 14.0381C8.21572 13.3303 8.83671 12.6543 9.48471 12.043ZM17.982 18.0273C19.4535 17.8673 20.9279 17.4102 22.2229 16.7371C22.2567 17.6879 22.0204 18.5548 21.5103 19.2983C20.9713 20.0832 20.1545 20.682 19.1768 21.0552C19.0726 20.735 18.9328 20.3946 18.7525 20.033C18.4246 19.3792 18.171 18.7052 17.982 18.0273ZM21.6203 12.2754C20.7794 10.9649 19.8672 9.96301 18.8865 9.27161C19.3696 8.41051 19.9501 7.75093 20.5663 7.37968C22.2924 6.34211 23.7561 7.66414 24.6799 8.95918C25.6384 10.3015 25.7242 11.7363 24.9258 13.1095C24.4832 13.8722 23.7938 14.5713 22.9539 15.1644C22.7215 14.3023 22.302 13.339 21.6203 12.2754ZM24.2123 7.01325C22.3907 5.48775 20.7669 6.1319 20.0678 6.55329C19.2857 7.02386 18.5991 7.79239 18.0456 8.76343C17.9357 8.7075 17.8248 8.65542 17.713 8.60721C19.0707 6.42021 19.4844 4.33928 17.6966 2.5515C17.1132 1.96714 16.471 1.51875 15.7998 1.18414C19.3677 1.84757 22.3946 4.01914 24.2123 7.01325ZM9.79714 1.52165C8.03539 2.65179 6.37296 4.89375 6.02582 8.25911C4.32193 8.09807 2.69229 8.82708 1.647 9.44615C2.93914 5.67001 5.97182 2.7029 9.79714 1.52165ZM1.24393 10.8752C1.77622 10.4721 3.86872 9.00932 5.96411 9.22242C5.93711 10.2648 6.03064 11.4008 6.2775 12.6302C6.3585 13.0372 6.45397 13.4344 6.561 13.8211C4.91014 15.9011 3.59582 18.1893 2.82343 20.0456C1.65182 18.1382 0.964286 15.902 0.964286 13.5C0.964286 12.5994 1.06361 11.7219 1.24393 10.8752ZM3.48011 21.0108C4.10497 19.3137 5.33346 17.0495 6.91875 14.9435C7.34496 16.119 7.90039 17.1826 8.56575 18.117C7.88593 19.1497 7.39993 20.1632 7.23793 21.1352C6.96118 22.7976 7.86761 24.3039 9.72578 25.2691C10.125 25.4764 10.5724 25.6433 11.0363 25.7908C7.95921 25.1775 5.29779 23.4302 3.48011 21.0108ZM18.1016 25.1524C18.2269 25.057 18.3484 24.9567 18.4593 24.8477C19.0408 24.2749 19.5702 23.3637 19.3947 21.9992C20.6087 21.5605 21.6328 20.8247 22.3059 19.845C22.7957 19.1324 23.3502 17.9116 23.1535 16.199C24.2643 15.4777 25.1823 14.5877 25.7599 13.5945C25.8583 13.4248 25.9383 13.2522 26.0155 13.0796C26.0171 13.1398 26.0211 13.1998 26.0251 13.2599C26.0304 13.3392 26.0357 13.4188 26.0357 13.5C26.0357 18.7968 22.7456 23.3164 18.1016 25.1524Z" fill="black"/>
<path d="M13.5 0C6.05571 0 0 6.05571 0 13.5C0 20.9443 6.05571 27 13.5 27C20.9443 27 27 20.9443 27 13.5C27 6.05571 20.9443 0 13.5 0ZM10.1713 24.4128C9.31114 23.9664 7.911 22.9674 8.18968 21.2934C8.31407 20.547 8.67664 19.7476 9.19446 18.9193C10.6766 20.6511 12.5955 21.8237 14.8095 22.2769C16.0669 22.5344 17.3166 22.5199 18.4526 22.2692C18.5133 23.0271 18.2906 23.6588 17.7824 24.1592C16.3446 25.5748 12.6447 25.6982 10.1713 24.4128ZM17.0158 3.23422C18.4198 4.63822 18.0196 6.37393 16.7815 8.29189C16.0872 8.12025 15.363 8.08072 14.6166 8.17426C12.9282 8.38543 11.258 9.28607 9.71325 10.557C8.95822 9.48568 8.04311 8.77982 6.97468 8.44907C7.28904 5.12903 8.98039 3.0134 10.6795 2.10408C12.8038 0.967185 15.1721 1.38954 17.0158 3.23422ZM11.4731 15.9618C12.5319 17.1334 14.0313 17.8528 15.8712 18.0418C16.2444 18.0784 16.6214 18.0939 17.0071 18.089C17.2164 18.9019 17.5076 19.7013 17.8904 20.466C18.0408 20.7678 18.1623 21.0552 18.253 21.331C17.2482 21.5518 16.1315 21.5634 15.0033 21.3329C12.9234 20.9067 11.1269 19.7707 9.75857 18.0842C10.259 17.389 10.8463 16.6783 11.4731 15.9618ZM11.0642 13.3476C10.8202 12.6148 10.5406 11.96 10.2253 11.3824C11.6611 10.1771 13.202 9.32271 14.7372 9.13082C15.2299 9.07007 15.7101 9.07778 16.1788 9.15782C15.2253 10.44 13.9776 11.7913 12.7042 13.1704L12.6919 13.1837L12.6672 13.2105C12.2925 13.6163 11.9162 14.0239 11.5454 14.4325C11.3612 14.1104 11.1982 13.7497 11.0642 13.3476ZM17.7612 17.0785C17.2819 14.553 17.6551 12.0372 18.4526 10.1559C19.2886 10.772 20.0745 11.6524 20.8074 12.7951C21.4563 13.8086 21.8845 14.7883 22.0879 15.7082C20.7948 16.4353 19.2664 16.93 17.7612 17.0785ZM16.7988 17.1257C16.5192 17.1247 16.2415 17.1103 15.9695 17.0823C14.7256 16.9541 13.2107 16.5086 12.1153 15.2405C12.5376 14.7729 12.9706 14.3032 13.4007 13.8385L13.4065 13.8322C14.7604 12.3666 16.1311 10.8828 17.1633 9.43361C17.3137 9.4934 17.4632 9.55993 17.6108 9.63515C16.6947 11.717 16.3254 14.4508 16.7988 17.1257ZM8.98232 11.1925C8.40568 11.7228 7.85025 12.2995 7.32279 12.905C7.28711 12.7517 7.25336 12.5965 7.2225 12.4412C7.00747 11.3641 6.91586 10.368 6.92454 9.45C7.71043 9.75472 8.39796 10.3381 8.98232 11.1925ZM9.48471 12.043C9.72964 12.5193 9.95143 13.0564 10.1501 13.6524C10.3352 14.2097 10.5792 14.7198 10.8752 15.1807C10.259 15.8808 9.67372 16.579 9.15879 17.2723C8.52622 16.3254 8.01032 15.2405 7.63136 14.0381C8.21572 13.3303 8.83671 12.6543 9.48471 12.043ZM17.982 18.0273C19.4535 17.8673 20.9279 17.4102 22.2229 16.7371C22.2567 17.6879 22.0204 18.5548 21.5103 19.2983C20.9713 20.0832 20.1545 20.682 19.1768 21.0552C19.0726 20.735 18.9328 20.3946 18.7525 20.033C18.4246 19.3792 18.171 18.7052 17.982 18.0273ZM21.6203 12.2754C20.7794 10.9649 19.8672 9.96301 18.8865 9.27161C19.3696 8.41051 19.9501 7.75093 20.5663 7.37968C22.2924 6.34211 23.7561 7.66414 24.6799 8.95918C25.6384 10.3015 25.7242 11.7363 24.9258 13.1095C24.4832 13.8722 23.7938 14.5713 22.9539 15.1644C22.7215 14.3023 22.302 13.339 21.6203 12.2754ZM24.2123 7.01325C22.3907 5.48775 20.7669 6.1319 20.0678 6.55329C19.2857 7.02386 18.5991 7.79239 18.0456 8.76343C17.9357 8.7075 17.8248 8.65542 17.713 8.60721C19.0707 6.42021 19.4844 4.33928 17.6966 2.5515C17.1132 1.96714 16.471 1.51875 15.7998 1.18414C19.3677 1.84757 22.3946 4.01914 24.2123 7.01325ZM9.79714 1.52165C8.03539 2.65179 6.37296 4.89375 6.02582 8.25911C4.32193 8.09807 2.69229 8.82708 1.647 9.44615C2.93914 5.67001 5.97182 2.7029 9.79714 1.52165ZM1.24393 10.8752C1.77622 10.4721 3.86872 9.00932 5.96411 9.22242C5.93711 10.2648 6.03064 11.4008 6.2775 12.6302C6.3585 13.0372 6.45397 13.4344 6.561 13.8211C4.91014 15.9011 3.59582 18.1893 2.82343 20.0456C1.65182 18.1382 0.964286 15.902 0.964286 13.5C0.964286 12.5994 1.06361 11.7219 1.24393 10.8752ZM3.48011 21.0108C4.10497 19.3137 5.33346 17.0495 6.91875 14.9435C7.34496 16.119 7.90039 17.1826 8.56575 18.117C7.88593 19.1497 7.39993 20.1632 7.23793 21.1352C6.96118 22.7976 7.86761 24.3039 9.72578 25.2691C10.125 25.4764 10.5724 25.6433 11.0363 25.7908C7.95921 25.1775 5.29779 23.4302 3.48011 21.0108ZM18.1016 25.1524C18.2269 25.057 18.3484 24.9567 18.4593 24.8477C19.0408 24.2749 19.5702 23.3637 19.3947 21.9992C20.6087 21.5605 21.6328 20.8247 22.3059 19.845C22.7957 19.1324 23.3502 17.9116 23.1535 16.199C24.2643 15.4777 25.1823 14.5877 25.7599 13.5945C25.8583 13.4248 25.9383 13.2522 26.0155 13.0796C26.0171 13.1398 26.0211 13.1998 26.0251 13.2599C26.0304 13.3392 26.0357 13.4188 26.0357 13.5C26.0357 18.7968 22.7456 23.3164 18.1016 25.1524Z" stroke="black"/>
<path d="M36.2001 13V4.39H33.4101V2.5H40.9701V4.39H38.1801V13H36.2001ZM43.8997 13V2.5H45.8797V6.79H49.2697V2.5H51.2497V13H49.2697V8.68H45.8797V13H43.8997ZM54.5992 13V2.5H61.2292V4.39H56.5792V6.79H61.0492V8.68H56.5792V11.11H61.4092V13H54.5992ZM75.3684 13V2.5H77.3484V11.11H82.1184V13H75.3684ZM84.7479 13L87.2529 2.5H90.9729L93.4779 13H91.4079L90.8979 10.75H87.3279L86.8179 13H84.7479ZM87.7479 8.86H90.4629L89.2479 3.49H88.9779L87.7479 8.86ZM99.6475 13.21C98.7275 13.21 97.9525 13.045 97.3225 12.715C96.7025 12.375 96.2325 11.915 95.9125 11.335C95.6025 10.755 95.4475 10.1 95.4475 9.37V8.92H97.4275V9.28C97.4275 9.91 97.6125 10.415 97.9825 10.795C98.3525 11.165 98.9175 11.35 99.6775 11.35C100.278 11.35 100.723 11.22 101.013 10.96C101.303 10.7 101.448 10.39 101.448 10.03C101.448 9.8 101.393 9.59 101.283 9.4C101.173 9.2 100.973 9.03 100.683 8.89C100.393 8.74 99.9775 8.62 99.4375 8.53C98.7375 8.41 98.1125 8.235 97.5625 8.005C97.0225 7.775 96.5925 7.455 96.2725 7.045C95.9625 6.625 95.8075 6.07 95.8075 5.38V5.29C95.8075 4.72 95.9575 4.21 96.2575 3.76C96.5575 3.3 96.9775 2.94 97.5175 2.68C98.0675 2.42 98.7075 2.29 99.4375 2.29C100.268 2.29 100.968 2.44 101.538 2.74C102.108 3.04 102.538 3.44 102.828 3.94C103.128 4.43 103.278 4.96 103.278 5.53V6.07H101.298V5.71C101.298 5.29 101.133 4.925 100.803 4.615C100.483 4.305 100.028 4.15 99.4375 4.15C98.9475 4.15 98.5525 4.255 98.2525 4.465C97.9625 4.665 97.8175 4.94 97.8175 5.29C97.8175 5.65 97.9725 5.94 98.2825 6.16C98.6025 6.38 99.1975 6.57 100.068 6.73C101.168 6.92 102.008 7.255 102.588 7.735C103.168 8.205 103.458 8.9 103.458 9.82V10C103.458 10.97 103.118 11.75 102.438 12.34C101.758 12.92 100.828 13.21 99.6475 13.21ZM108.892 13V4.39H106.102V2.5H113.662V4.39H110.872V13H108.892Z" fill="black"/>
<path d="M43.69 26V24.095H44.68V17.39H43.69V15.5H47.5C48.79 15.5 49.75 15.805 50.38 16.415C51.02 17.025 51.34 17.96 51.34 19.22V22.28C51.34 23.54 51.02 24.475 50.38 25.085C49.75 25.695 48.79 26 47.5 26H43.69ZM46.66 24.11H47.5C48.19 24.11 48.67 23.95 48.94 23.63C49.22 23.3 49.36 22.79 49.36 22.1V19.22C49.36 18.62 49.22 18.165 48.94 17.855C48.67 17.545 48.19 17.39 47.5 17.39H46.66V24.11ZM54.6146 26V15.5H61.2446V17.39H56.5946V19.79H61.0646V21.68H56.5946V24.11H61.4246V26H54.6146ZM68.5091 26.21C67.5891 26.21 66.8141 26.045 66.1841 25.715C65.5641 25.375 65.0941 24.915 64.7741 24.335C64.4641 23.755 64.3091 23.1 64.3091 22.37V21.92H66.2891V22.28C66.2891 22.91 66.4741 23.415 66.8441 23.795C67.2141 24.165 67.7791 24.35 68.5391 24.35C69.1391 24.35 69.5841 24.22 69.8741 23.96C70.1641 23.7 70.3091 23.39 70.3091 23.03C70.3091 22.8 70.2541 22.59 70.1441 22.4C70.0341 22.2 69.8341 22.03 69.5441 21.89C69.2541 21.74 68.8391 21.62 68.2991 21.53C67.5991 21.41 66.9741 21.235 66.4241 21.005C65.8841 20.775 65.4541 20.455 65.1341 20.045C64.8241 19.625 64.6691 19.07 64.6691 18.38V18.29C64.6691 17.72 64.8191 17.21 65.1191 16.76C65.4191 16.3 65.8391 15.94 66.3791 15.68C66.9291 15.42 67.5691 15.29 68.2991 15.29C69.1291 15.29 69.8291 15.44 70.3991 15.74C70.9691 16.04 71.3991 16.44 71.6891 16.94C71.9891 17.43 72.1391 17.96 72.1391 18.53V19.07H70.1591V18.71C70.1591 18.29 69.9941 17.925 69.6641 17.615C69.3441 17.305 68.8891 17.15 68.2991 17.15C67.8091 17.15 67.4141 17.255 67.1141 17.465C66.8241 17.665 66.6791 17.94 66.6791 18.29C66.6791 18.65 66.8341 18.94 67.1441 19.16C67.4641 19.38 68.0591 19.57 68.9291 19.73C70.0291 19.92 70.8691 20.255 71.4491 20.735C72.0291 21.205 72.3191 21.9 72.3191 22.82V23C72.3191 23.97 71.9791 24.75 71.2991 25.34C70.6191 25.92 69.6891 26.21 68.5091 26.21ZM75.2337 26V24.11H77.7537V17.39H75.2337V15.5H82.2537V17.39H79.7337V24.11H82.2537V26H75.2337ZM88.6483 26.21C88.0083 26.21 87.4283 26.055 86.9083 25.745C86.3883 25.425 85.9733 24.95 85.6633 24.32C85.3533 23.69 85.1983 22.91 85.1983 21.98V19.52C85.1983 18.61 85.3633 17.84 85.6933 17.21C86.0333 16.58 86.4983 16.105 87.0883 15.785C87.6783 15.455 88.3583 15.29 89.1283 15.29C89.9283 15.29 90.6133 15.46 91.1833 15.8C91.7533 16.14 92.1883 16.6 92.4883 17.18C92.7883 17.75 92.9383 18.39 92.9383 19.1V19.28H90.9583V19.1C90.9583 18.47 90.7933 17.995 90.4633 17.675C90.1433 17.345 89.6883 17.18 89.0983 17.18C88.5483 17.18 88.0883 17.365 87.7183 17.735C87.3583 18.105 87.1783 18.75 87.1783 19.67V21.89C87.1783 23.51 87.8383 24.32 89.1583 24.32C89.7483 24.32 90.1933 24.16 90.4933 23.84C90.8033 23.52 90.9583 23.1 90.9583 22.58H88.4383V20.69H92.9383V26H91.1383V24.83H90.8683C90.7483 25.22 90.5183 25.55 90.1783 25.82C89.8383 26.08 89.3283 26.21 88.6483 26.21ZM95.8379 26V15.5H99.7079L100.938 25.01H101.208V15.5H103.188V26H99.3179L98.0879 16.49H97.8179V26H95.8379ZM106.537 26V15.5H113.167V17.39H108.517V19.79H112.987V21.68H108.517V24.11H113.347V26H106.537ZM116.787 26V15.5H120.807C121.527 15.5 122.132 15.63 122.622 15.89C123.112 16.15 123.482 16.5 123.732 16.94C123.982 17.37 124.107 17.855 124.107 18.395V18.755C124.107 19.185 123.987 19.59 123.747 19.97C123.517 20.34 123.167 20.625 122.697 20.825V21.095C123.047 21.135 123.322 21.27 123.522 21.5C123.732 21.73 123.837 22.02 123.837 22.37V26H121.857V22.85C121.857 22.61 121.792 22.415 121.662 22.265C121.542 22.115 121.337 22.04 121.047 22.04H118.767V26H116.787ZM118.767 20.15H120.657C121.137 20.15 121.502 20.035 121.752 19.805C122.002 19.575 122.127 19.26 122.127 18.86V18.68C122.127 18.33 122.002 18.03 121.752 17.78C121.502 17.52 121.137 17.39 120.657 17.39H118.767V20.15Z" fill="black"/>
</svg>
