<svg width="292" height="74" viewBox="0 0 292 74" fill="none" xmlns="http://www.w3.org/2000/svg">
<path d="M32.4999 7C16.2328 7 3 20.2328 3 36.4999C3 52.767 16.2328 65.9998 32.4999 65.9998C48.767 65.9998 61.9998 52.767 61.9998 36.4999C61.9998 20.2328 48.767 7 32.4999 7ZM25.2261 60.3464C23.3465 59.3708 20.287 57.1878 20.8959 53.5298C21.1677 51.8989 21.96 50.1521 23.0916 48.342C26.3302 52.1264 30.5234 54.6887 35.3614 55.6791C38.1091 56.2417 40.84 56.2101 43.3222 55.6622C43.4549 57.3184 42.9682 58.6986 41.8577 59.7922C38.716 62.8855 30.6309 63.1552 25.2261 60.3464ZM40.1825 14.0673C43.2505 17.1353 42.3761 20.9282 39.6705 25.1193C38.1534 24.7442 36.5709 24.6578 34.94 24.8622C31.2504 25.3237 27.6008 27.2917 24.2252 30.0689C22.5753 27.7279 20.5756 26.1855 18.2409 25.4627C18.9279 18.2079 22.6238 13.5848 26.3365 11.5978C30.9786 9.11347 36.1537 10.0364 40.1825 14.0673ZM28.0707 41.8794C30.3844 44.4396 33.661 46.0116 37.6814 46.4246C38.4968 46.5046 39.3207 46.5383 40.1636 46.5278C40.6208 48.3041 41.2572 50.0509 42.0937 51.7219C42.4224 52.3814 42.6879 53.0093 42.886 53.612C40.6904 54.0945 38.2503 54.1198 35.7849 53.6162C31.2399 52.6848 27.3143 50.2026 24.3242 46.5173C25.4178 44.998 26.7011 43.445 28.0707 41.8794ZM27.1773 36.167C26.6442 34.5656 26.0331 33.1348 25.3441 31.8727C28.4816 29.2387 31.8488 27.3718 35.2034 26.9525C36.2801 26.8197 37.3295 26.8366 38.3535 27.0115C36.27 29.8134 33.5437 32.766 30.761 35.7796L30.7341 35.8088L30.6798 35.8677C29.8612 36.7543 29.0389 37.6449 28.2288 38.5375C27.8263 37.8337 27.4702 37.0457 27.1773 36.167ZM41.8114 44.3195C40.7641 38.8009 41.5796 33.3034 43.3222 29.1924C45.1491 30.5388 46.8664 32.4626 48.4678 34.9596C49.8859 37.1742 50.8215 39.315 51.2661 41.3253C48.4404 42.914 45.1006 43.995 41.8114 44.3195ZM39.7084 44.4227C39.0974 44.4206 38.4905 44.389 37.8963 44.3279C35.1781 44.0477 31.8678 43.0742 29.4741 40.3033C30.397 39.2813 31.3431 38.2552 32.2829 37.2395L32.2956 37.2258C35.2541 34.0232 38.2493 30.7808 40.5049 27.6141C40.8337 27.7448 41.1603 27.8902 41.4827 28.0545C39.4809 32.6038 38.6738 38.5776 39.7084 44.4227ZM22.628 31.4575C21.3679 32.6165 20.1542 33.8765 19.0016 35.1998C18.9236 34.8648 18.8499 34.5255 18.7825 34.1863C18.3126 31.8326 18.1124 29.6559 18.1314 27.65C19.8487 28.3158 21.3511 29.5906 22.628 31.4575ZM23.7258 33.316C24.261 34.357 24.7457 35.5307 25.1797 36.8329C25.5843 38.0508 26.1174 39.1654 26.7643 40.1727C25.4178 41.7024 24.1388 43.228 23.0136 44.743C21.6313 42.6738 20.504 40.3033 19.6759 37.6757C20.9528 36.1291 22.3098 34.652 23.7258 33.316ZM42.2939 46.3929C45.5094 46.0432 48.7312 45.0444 51.5611 43.5736C51.6348 45.6512 51.1186 47.5455 50.0039 49.1701C48.826 50.8854 47.0413 52.1939 44.9046 53.0094C44.6771 52.3098 44.3715 51.5659 43.9775 50.7758C43.2611 49.3471 42.7069 47.8743 42.2939 46.3929ZM50.2441 33.8239C48.4067 30.9603 46.4133 28.771 44.2704 27.2601C45.3261 25.3785 46.5946 23.9372 47.941 23.1259C51.7128 20.8586 54.9114 23.7475 56.9301 26.5774C59.0246 29.5105 59.2121 32.646 57.4674 35.6465C56.5002 37.3133 54.9936 38.841 53.1583 40.1368C52.6505 38.2531 51.7339 36.148 50.2441 33.8239ZM55.9081 22.3252C51.9277 18.9917 48.3793 20.3993 46.8516 21.3201C45.1427 22.3484 43.6425 24.0278 42.433 26.1497C42.1928 26.0274 41.9504 25.9137 41.706 25.8083C44.6729 21.0293 45.5768 16.4821 41.6702 12.5755C40.3954 11.2986 38.992 10.3187 37.5254 9.58756C45.3219 11.0373 51.9362 15.7825 55.9081 22.3252ZM24.4085 10.3251C20.5588 12.7946 16.9261 17.6937 16.1675 25.0476C12.4442 24.6957 8.88313 26.2887 6.59899 27.6415C9.42256 19.39 16.0495 12.9063 24.4085 10.3251ZM5.71821 30.7643C6.88135 29.8835 11.4538 26.687 16.0326 27.1527C15.9736 29.4305 16.178 31.9127 16.7175 34.5993C16.8945 35.4885 17.1031 36.3566 17.337 37.2016C13.7295 41.7467 10.8575 46.7469 9.1697 50.8032C6.60953 46.6352 5.10714 41.7488 5.10714 36.4999C5.10714 34.5319 5.32417 32.6144 5.71821 30.7643ZM10.6047 52.9124C11.9701 49.2039 14.6546 44.2563 18.1187 39.6543C19.0501 42.2229 20.2638 44.5471 21.7177 46.5889C20.2322 48.8456 19.1702 51.0602 18.8162 53.1842C18.2114 56.8169 20.1921 60.1083 24.2526 62.2175C25.1249 62.6706 26.1027 63.0351 27.1162 63.3575C20.3923 62.0174 14.5766 58.1992 10.6047 52.9124ZM42.5552 61.9626C42.8291 61.754 43.0946 61.5348 43.3369 61.2967C44.6075 60.0451 45.7644 58.0538 45.3809 55.0722C48.0337 54.1135 50.2715 52.5057 51.7423 50.3649C52.8127 48.8077 54.0243 46.1401 53.5945 42.3978C56.0219 40.8217 58.0279 38.8768 59.2901 36.7064C59.505 36.3356 59.6799 35.9584 59.8485 35.5812C59.8521 35.7129 59.8608 35.8438 59.8696 35.9751C59.8811 36.1485 59.8927 36.3225 59.8927 36.4999C59.8927 48.0744 52.7032 57.9506 42.5552 61.9626Z" fill="black"/>
<path d="M32.4999 7C16.2328 7 3 20.2328 3 36.4999C3 52.767 16.2328 65.9998 32.4999 65.9998C48.767 65.9998 61.9998 52.767 61.9998 36.4999C61.9998 20.2328 48.767 7 32.4999 7ZM25.2261 60.3464C23.3465 59.3708 20.287 57.1878 20.8959 53.5298C21.1677 51.8989 21.96 50.1521 23.0916 48.342C26.3302 52.1264 30.5234 54.6887 35.3614 55.6791C38.1091 56.2417 40.84 56.2101 43.3222 55.6622C43.4549 57.3184 42.9682 58.6986 41.8577 59.7922C38.716 62.8855 30.6309 63.1552 25.2261 60.3464ZM40.1825 14.0673C43.2505 17.1353 42.3761 20.9282 39.6705 25.1193C38.1534 24.7442 36.5709 24.6578 34.94 24.8622C31.2504 25.3237 27.6008 27.2917 24.2252 30.0689C22.5753 27.7279 20.5756 26.1855 18.2409 25.4627C18.9279 18.2079 22.6238 13.5848 26.3365 11.5978C30.9786 9.11347 36.1537 10.0364 40.1825 14.0673ZM28.0707 41.8794C30.3844 44.4396 33.661 46.0116 37.6814 46.4246C38.4968 46.5046 39.3207 46.5383 40.1636 46.5278C40.6208 48.3041 41.2572 50.0509 42.0937 51.7219C42.4224 52.3814 42.6879 53.0093 42.886 53.612C40.6904 54.0945 38.2503 54.1198 35.7849 53.6162C31.2399 52.6848 27.3143 50.2026 24.3242 46.5173C25.4178 44.998 26.7011 43.445 28.0707 41.8794ZM27.1773 36.167C26.6442 34.5656 26.0331 33.1348 25.3441 31.8727C28.4816 29.2387 31.8488 27.3718 35.2034 26.9525C36.2801 26.8197 37.3295 26.8366 38.3535 27.0115C36.27 29.8134 33.5437 32.766 30.761 35.7796L30.7341 35.8088L30.6798 35.8677C29.8612 36.7543 29.0389 37.6449 28.2288 38.5375C27.8263 37.8337 27.4702 37.0457 27.1773 36.167ZM41.8114 44.3195C40.7641 38.8009 41.5796 33.3034 43.3222 29.1924C45.1491 30.5388 46.8664 32.4626 48.4678 34.9596C49.8859 37.1742 50.8215 39.315 51.2661 41.3253C48.4404 42.914 45.1006 43.995 41.8114 44.3195ZM39.7084 44.4227C39.0974 44.4206 38.4905 44.389 37.8963 44.3279C35.1781 44.0477 31.8678 43.0742 29.4741 40.3033C30.397 39.2813 31.3431 38.2552 32.2829 37.2395L32.2956 37.2258C35.2541 34.0232 38.2493 30.7808 40.5049 27.6141C40.8337 27.7448 41.1603 27.8902 41.4827 28.0545C39.4809 32.6038 38.6738 38.5776 39.7084 44.4227ZM22.628 31.4575C21.3679 32.6165 20.1542 33.8765 19.0016 35.1998C18.9236 34.8648 18.8499 34.5255 18.7825 34.1863C18.3126 31.8326 18.1124 29.6559 18.1314 27.65C19.8487 28.3158 21.3511 29.5906 22.628 31.4575ZM23.7258 33.316C24.261 34.357 24.7457 35.5307 25.1797 36.8329C25.5843 38.0508 26.1174 39.1654 26.7643 40.1727C25.4178 41.7024 24.1388 43.228 23.0136 44.743C21.6313 42.6738 20.504 40.3033 19.6759 37.6757C20.9528 36.1291 22.3098 34.652 23.7258 33.316ZM42.2939 46.3929C45.5094 46.0432 48.7312 45.0444 51.5611 43.5736C51.6348 45.6512 51.1186 47.5455 50.0039 49.1701C48.826 50.8854 47.0413 52.1939 44.9046 53.0094C44.6771 52.3098 44.3715 51.5659 43.9775 50.7758C43.2611 49.3471 42.7069 47.8743 42.2939 46.3929ZM50.2441 33.8239C48.4067 30.9603 46.4133 28.771 44.2704 27.2601C45.3261 25.3785 46.5946 23.9372 47.941 23.1259C51.7128 20.8586 54.9114 23.7475 56.9301 26.5774C59.0246 29.5105 59.2121 32.646 57.4674 35.6465C56.5002 37.3133 54.9936 38.841 53.1583 40.1368C52.6505 38.2531 51.7339 36.148 50.2441 33.8239ZM55.9081 22.3252C51.9277 18.9917 48.3793 20.3993 46.8516 21.3201C45.1427 22.3484 43.6425 24.0278 42.433 26.1497C42.1928 26.0274 41.9504 25.9137 41.706 25.8083C44.6729 21.0293 45.5768 16.4821 41.6702 12.5755C40.3954 11.2986 38.992 10.3187 37.5254 9.58756C45.3219 11.0373 51.9362 15.7825 55.9081 22.3252ZM24.4085 10.3251C20.5588 12.7946 16.9261 17.6937 16.1675 25.0476C12.4442 24.6957 8.88313 26.2887 6.59899 27.6415C9.42256 19.39 16.0495 12.9063 24.4085 10.3251ZM5.71821 30.7643C6.88135 29.8835 11.4538 26.687 16.0326 27.1527C15.9736 29.4305 16.178 31.9127 16.7175 34.5993C16.8945 35.4885 17.1031 36.3566 17.337 37.2016C13.7295 41.7467 10.8575 46.7469 9.1697 50.8032C6.60953 46.6352 5.10714 41.7488 5.10714 36.4999C5.10714 34.5319 5.32417 32.6144 5.71821 30.7643ZM10.6047 52.9124C11.9701 49.2039 14.6546 44.2563 18.1187 39.6543C19.0501 42.2229 20.2638 44.5471 21.7177 46.5889C20.2322 48.8456 19.1702 51.0602 18.8162 53.1842C18.2114 56.8169 20.1921 60.1083 24.2526 62.2175C25.1249 62.6706 26.1027 63.0351 27.1162 63.3575C20.3923 62.0174 14.5766 58.1992 10.6047 52.9124ZM42.5552 61.9626C42.8291 61.754 43.0946 61.5348 43.3369 61.2967C44.6075 60.0451 45.7644 58.0538 45.3809 55.0722C48.0337 54.1135 50.2715 52.5057 51.7423 50.3649C52.8127 48.8077 54.0243 46.1401 53.5945 42.3978C56.0219 40.8217 58.0279 38.8768 59.2901 36.7064C59.505 36.3356 59.6799 35.9584 59.8485 35.5812C59.8521 35.7129 59.8608 35.8438 59.8696 35.9751C59.8811 36.1485 59.8927 36.3225 59.8927 36.4999C59.8927 48.0744 52.7032 57.9506 42.5552 61.9626Z" stroke="black"/>
<path d="M82.2126 35V16.1856H76.1159V12.0556H92.6359V16.1856H86.5392V35H82.2126ZM99.0375 35V12.0556H103.364V21.43H110.772V12.0556H115.099V35H110.772V25.56H103.364V35H99.0375ZM122.418 35V12.0556H136.906V16.1856H126.745V21.43H136.512V25.56H126.745V30.87H137.299V35H122.418ZM167.802 35V12.0556H172.129V30.87H182.552V35H167.802ZM188.298 35L193.772 12.0556H201.901L207.375 35H202.852L201.737 30.0833H193.936L192.822 35H188.298ZM194.854 25.9534H200.787L198.132 14.2189H197.542L194.854 25.9534ZM220.857 35.4589C218.846 35.4589 217.153 35.0983 215.776 34.3772C214.421 33.6343 213.394 32.6291 212.695 31.3617C212.018 30.0943 211.679 28.663 211.679 27.0678V26.0845H216.006V26.8711C216.006 28.2478 216.41 29.3513 217.218 30.1817C218.027 30.9902 219.261 31.3945 220.922 31.3945C222.233 31.3945 223.206 31.1104 223.839 30.5422C224.473 29.9741 224.79 29.2967 224.79 28.51C224.79 28.0074 224.67 27.5485 224.429 27.1334C224.189 26.6963 223.752 26.3248 223.118 26.0189C222.485 25.6911 221.578 25.4289 220.398 25.2322C218.868 24.97 217.502 24.5876 216.301 24.085C215.121 23.5824 214.181 22.8832 213.482 21.9873C212.804 21.0695 212.466 19.8567 212.466 18.3489V18.1523C212.466 16.9067 212.793 15.7923 213.449 14.8089C214.104 13.8038 215.022 13.0171 216.202 12.4489C217.404 11.8808 218.803 11.5967 220.398 11.5967C222.211 11.5967 223.741 11.9245 224.987 12.5801C226.232 13.2356 227.172 14.1097 227.805 15.2023C228.461 16.273 228.789 17.4312 228.789 18.6767V19.8567H224.462V19.07C224.462 18.1523 224.102 17.3547 223.38 16.6773C222.681 15.9999 221.687 15.6612 220.398 15.6612C219.327 15.6612 218.464 15.8906 217.808 16.3495C217.175 16.7865 216.858 17.3875 216.858 18.1523C216.858 18.9389 217.196 19.5726 217.874 20.0534C218.573 20.5341 219.873 20.9493 221.774 21.2989C224.178 21.7141 226.014 22.4461 227.281 23.495C228.548 24.5221 229.182 26.0408 229.182 28.0511V28.4445C229.182 30.5641 228.439 32.2685 226.953 33.5578C225.467 34.8252 223.435 35.4589 220.857 35.4589ZM241.058 35V16.1856H234.961V12.0556H251.481V16.1856H245.384V35H241.058Z" fill="black"/>
<path d="M98.4704 63.4077V59.2449H100.634V44.5933H98.4704V40.4633H106.796C109.615 40.4633 111.713 41.1298 113.089 42.4628C114.488 43.7957 115.187 45.8389 115.187 48.5922V55.2788C115.187 58.0322 114.488 60.0753 113.089 61.4083C111.713 62.7412 109.615 63.4077 106.796 63.4077H98.4704ZM104.96 59.2777H106.796C108.304 59.2777 109.353 58.9281 109.943 58.2288C110.554 57.5077 110.86 56.3933 110.86 54.8855V48.5922C110.86 47.2811 110.554 46.2868 109.943 45.6094C109.353 44.932 108.304 44.5933 106.796 44.5933H104.96V59.2777ZM122.343 63.4077V40.4633H136.83V44.5933H126.669V49.8377H136.437V53.9677H126.669V59.2777H137.224V63.4077H122.343ZM152.705 63.8666C150.694 63.8666 149.001 63.506 147.624 62.7849C146.269 62.042 145.242 61.0368 144.543 59.7694C143.866 58.502 143.527 57.0707 143.527 55.4755V54.4922H147.854V55.2788C147.854 56.6555 148.258 57.759 149.066 58.5894C149.875 59.3979 151.11 59.8022 152.77 59.8022C154.081 59.8022 155.054 59.5181 155.687 58.9499C156.321 58.3818 156.638 57.7044 156.638 56.9177C156.638 56.4151 156.518 55.9563 156.277 55.5411C156.037 55.104 155.6 54.7326 154.966 54.4266C154.333 54.0988 153.426 53.8366 152.246 53.64C150.716 53.3777 149.35 52.9953 148.149 52.4927C146.969 51.9902 146.029 51.2909 145.33 50.395C144.652 49.4772 144.314 48.2644 144.314 46.7566V46.56C144.314 45.3144 144.641 44.2 145.297 43.2167C145.952 42.2115 146.87 41.4248 148.05 40.8567C149.252 40.2885 150.651 40.0044 152.246 40.0044C154.06 40.0044 155.589 40.3322 156.835 40.9878C158.08 41.6433 159.02 42.5174 159.654 43.61C160.309 44.6807 160.637 45.8389 160.637 47.0844V48.2644H156.31V47.4778C156.31 46.56 155.95 45.7624 155.229 45.085C154.529 44.4076 153.535 44.0689 152.246 44.0689C151.175 44.0689 150.312 44.2983 149.656 44.7572C149.023 45.1942 148.706 45.7952 148.706 46.56C148.706 47.3466 149.045 47.9803 149.722 48.4611C150.421 48.9418 151.721 49.357 153.622 49.7066C156.026 50.1218 157.862 50.8539 159.129 51.9027C160.397 52.9298 161.03 54.4485 161.03 56.4588V56.8522C161.03 58.9718 160.287 60.6762 158.801 61.9655C157.315 63.2329 155.283 63.8666 152.705 63.8666ZM167.399 63.4077V59.2777H172.906V44.5933H167.399V40.4633H182.739V44.5933H177.232V59.2777H182.739V63.4077H167.399ZM196.712 63.8666C195.314 63.8666 194.046 63.5279 192.91 62.8505C191.774 62.1512 190.867 61.1133 190.19 59.7366C189.512 58.3599 189.173 56.6555 189.173 54.6233V49.2478C189.173 47.2592 189.534 45.5766 190.255 44.2C190.998 42.8233 192.014 41.7854 193.303 41.0861C194.593 40.365 196.079 40.0044 197.761 40.0044C199.509 40.0044 201.006 40.3759 202.252 41.1189C203.497 41.8618 204.448 42.867 205.103 44.1344C205.759 45.38 206.087 46.7785 206.087 48.33V48.7233H201.76V48.33C201.76 46.9533 201.4 45.9154 200.678 45.2161C199.979 44.495 198.985 44.1344 197.696 44.1344C196.494 44.1344 195.489 44.5387 194.68 45.3472C193.893 46.1557 193.5 47.5652 193.5 49.5755V54.4266C193.5 57.9666 194.942 59.7366 197.827 59.7366C199.116 59.7366 200.088 59.387 200.744 58.6877C201.421 57.9885 201.76 57.0707 201.76 55.9344H196.253V51.8044H206.087V63.4077H202.153V60.8511H201.563C201.301 61.7033 200.799 62.4244 200.056 63.0144C199.313 63.5825 198.198 63.8666 196.712 63.8666ZM212.423 63.4077V40.4633H220.879L223.567 61.2444H224.157V40.4633H228.484V63.4077H220.027L217.34 42.6267H216.75V63.4077H212.423ZM235.803 63.4077V40.4633H250.291V44.5933H240.13V49.8377H249.898V53.9677H240.13V59.2777H250.684V63.4077H235.803ZM258.2 63.4077V40.4633H266.985C268.558 40.4633 269.88 40.7474 270.951 41.3155C272.022 41.8837 272.83 42.6485 273.377 43.61C273.923 44.5496 274.196 45.6094 274.196 46.7894V47.5761C274.196 48.5157 273.934 49.4007 273.409 50.2311C272.907 51.0396 272.142 51.6624 271.115 52.0994V52.6894C271.88 52.7768 272.481 53.0718 272.918 53.5744C273.377 54.077 273.606 54.7107 273.606 55.4755V63.4077H269.279V56.5244C269.279 56 269.137 55.5738 268.853 55.2461C268.591 54.9183 268.143 54.7544 267.509 54.7544H262.527V63.4077H258.2ZM262.527 50.6244H266.657C267.706 50.6244 268.504 50.3731 269.05 49.8705C269.596 49.3679 269.869 48.6796 269.869 47.8055V47.4122C269.869 46.6474 269.596 45.9918 269.05 45.4455C268.504 44.8774 267.706 44.5933 266.657 44.5933H262.527V50.6244Z" fill="black"/>
</svg>
